name rise35.5848peak51.9257fall54.8793.mot
datacolumns 19
datarows 27
range 17.74992900000000 17.79326300000000
endheader
time	ground_force1_vx	ground_force1_vy	ground_force1_vz	ground_force1_px	ground_force1_py	ground_force1_pz	ground_force2_vx	ground_force2_vy	ground_force2_vz	ground_force2_px	ground_force2_py	ground_force2_pz	ground_torque1_x	ground_torque1_y	ground_torque1_z	ground_torque2_x	ground_torque2_y	ground_torque2_z	
17.74992900000000	58.20599100000000	735.89927499999999	53.39514900000000	0.29658800000000	0.00000000000000	0.12868600000000	0.00000000000000	0.00000000000000	0.00000000000000	0.00000000000000	0.00000000000000	0.00000000000000	0.00000000000000	15.61156900000000	0.00000000000000	0.00000000000000	0.00000000000000	0.00000000000000	
17.75159900000000	57.83912400000000	739.15567699999997	53.54056100000000	0.29595400000000	0.00000000000000	0.12871100000000	0.00000000000000	0.00000000000000	0.00000000000000	0.00000000000000	0.00000000000000	0.00000000000000	0.00000000000000	15.67947300000000	0.00000000000000	0.00000000000000	0.00000000000000	0.00000000000000	
17.75326400000000	57.47183800000000	742.31911300000002	53.69185600000000	0.29534000000000	0.00000000000000	0.12873700000000	0.00000000000000	0.00000000000000	0.00000000000000	0.00000000000000	0.00000000000000	0.00000000000000	0.00000000000000	15.75272000000000	0.00000000000000	0.00000000000000	0.00000000000000	0.00000000000000	
17.75492500000000	57.10455300000000	745.38812199999995	53.84881800000000	0.29474500000000	0.00000000000000	0.12876400000000	0.00000000000000	0.00000000000000	0.00000000000000	0.00000000000000	0.00000000000000	0.00000000000000	0.00000000000000	15.83108100000000	0.00000000000000	0.00000000000000	0.00000000000000	0.00000000000000	
17.75659300000000	56.73762200000000	748.36123299999997	54.01113700000000	0.29416700000000	0.00000000000000	0.12879200000000	0.00000000000000	0.00000000000000	0.00000000000000	0.00000000000000	0.00000000000000	0.00000000000000	0.00000000000000	15.91427700000000	0.00000000000000	0.00000000000000	0.00000000000000	0.00000000000000	
17.75826300000000	56.37133500000000	751.23697700000002	54.17841000000000	0.29360400000000	0.00000000000000	0.12882100000000	0.00000000000000	0.00000000000000	0.00000000000000	0.00000000000000	0.00000000000000	0.00000000000000	0.00000000000000	16.00198500000000	0.00000000000000	0.00000000000000	0.00000000000000	0.00000000000000	
17.75992700000000	56.00591800000000	754.01389800000004	54.35015500000000	0.29305600000000	0.00000000000000	0.12885100000000	0.00000000000000	0.00000000000000	0.00000000000000	0.00000000000000	0.00000000000000	0.00000000000000	0.00000000000000	16.09384100000000	0.00000000000000	0.00000000000000	0.00000000000000	0.00000000000000	
17.76159500000000	55.64154000000000	756.69056300000000	54.52581100000000	0.29252000000000	0.00000000000000	0.12888200000000	0.00000000000000	0.00000000000000	0.00000000000000	0.00000000000000	0.00000000000000	0.00000000000000	0.00000000000000	16.18944400000000	0.00000000000000	0.00000000000000	0.00000000000000	0.00000000000000	
17.76326300000000	55.27831200000000	759.26556900000003	54.70475000000000	0.29199400000000	0.00000000000000	0.12891400000000	0.00000000000000	0.00000000000000	0.00000000000000	0.00000000000000	0.00000000000000	0.00000000000000	0.00000000000000	16.28835900000000	0.00000000000000	0.00000000000000	0.00000000000000	0.00000000000000	
17.76492700000000	54.91629300000000	761.73756200000003	54.88627900000000	0.29147800000000	0.00000000000000	0.12894800000000	0.00000000000000	0.00000000000000	0.00000000000000	0.00000000000000	0.00000000000000	0.00000000000000	0.00000000000000	16.39012100000000	0.00000000000000	0.00000000000000	0.00000000000000	0.00000000000000	
17.76659600000000	54.55549400000000	764.10523999999998	55.06964900000000	0.29096800000000	0.00000000000000	0.12898200000000	0.00000000000000	0.00000000000000	0.00000000000000	0.00000000000000	0.00000000000000	0.00000000000000	0.00000000000000	16.49424100000000	0.00000000000000	0.00000000000000	0.00000000000000	0.00000000000000	
17.76826000000000	54.19587600000000	766.36736399999995	55.25406300000000	0.29046400000000	0.00000000000000	0.12901700000000	0.00000000000000	0.00000000000000	0.00000000000000	0.00000000000000	0.00000000000000	0.00000000000000	0.00000000000000	16.60020400000000	0.00000000000000	0.00000000000000	0.00000000000000	0.00000000000000	
17.76993200000000	53.83736400000000	768.52277200000003	55.43868700000000	0.28996200000000	0.00000000000000	0.12905400000000	0.00000000000000	0.00000000000000	0.00000000000000	0.00000000000000	0.00000000000000	0.00000000000000	0.00000000000000	16.70747900000000	0.00000000000000	0.00000000000000	0.00000000000000	0.00000000000000	
17.77160500000000	53.47984000000000	770.57038499999999	55.62264900000000	0.28946300000000	0.00000000000000	0.12909100000000	0.00000000000000	0.00000000000000	0.00000000000000	0.00000000000000	0.00000000000000	0.00000000000000	0.00000000000000	16.81552300000000	0.00000000000000	0.00000000000000	0.00000000000000	0.00000000000000	
17.77325600000000	53.12315600000000	772.50921900000003	55.80505300000000	0.28896300000000	0.00000000000000	0.12912900000000	0.00000000000000	0.00000000000000	0.00000000000000	0.00000000000000	0.00000000000000	0.00000000000000	0.00000000000000	16.92378100000000	0.00000000000000	0.00000000000000	0.00000000000000	0.00000000000000	
17.77492300000000	52.76713200000000	774.33839000000000	55.98498800000000	0.28846100000000	0.00000000000000	0.12916800000000	0.00000000000000	0.00000000000000	0.00000000000000	0.00000000000000	0.00000000000000	0.00000000000000	0.00000000000000	17.03169000000000	0.00000000000000	0.00000000000000	0.00000000000000	0.00000000000000	
17.77659800000000	52.41156200000000	776.05712600000004	56.16152900000000	0.28795500000000	0.00000000000000	0.12920800000000	0.00000000000000	0.00000000000000	0.00000000000000	0.00000000000000	0.00000000000000	0.00000000000000	0.00000000000000	17.13868900000000	0.00000000000000	0.00000000000000	0.00000000000000	0.00000000000000	
17.77826200000000	52.05622200000000	777.66477399999997	56.33374800000000	0.28744300000000	0.00000000000000	0.12924800000000	0.00000000000000	0.00000000000000	0.00000000000000	0.00000000000000	0.00000000000000	0.00000000000000	0.00000000000000	17.24421600000000	0.00000000000000	0.00000000000000	0.00000000000000	0.00000000000000	
17.77993200000000	51.70086700000000	779.16080699999998	56.50072300000000	0.28692500000000	0.00000000000000	0.12929000000000	0.00000000000000	0.00000000000000	0.00000000000000	0.00000000000000	0.00000000000000	0.00000000000000	0.00000000000000	17.34771500000000	0.00000000000000	0.00000000000000	0.00000000000000	0.00000000000000	
17.78160300000000	51.34524100000000	780.54483100000004	56.66154000000000	0.28639700000000	0.00000000000000	0.12933200000000	0.00000000000000	0.00000000000000	0.00000000000000	0.00000000000000	0.00000000000000	0.00000000000000	0.00000000000000	17.44863900000000	0.00000000000000	0.00000000000000	0.00000000000000	0.00000000000000	
17.78325600000000	50.98907800000000	781.81659200000001	56.81530200000000	0.28585900000000	0.00000000000000	0.12937500000000	0.00000000000000	0.00000000000000	0.00000000000000	0.00000000000000	0.00000000000000	0.00000000000000	0.00000000000000	17.54645500000000	0.00000000000000	0.00000000000000	0.00000000000000	0.00000000000000	
17.78492700000000	50.63210700000000	782.97598100000005	56.96113700000000	0.28531000000000	0.00000000000000	0.12941800000000	0.00000000000000	0.00000000000000	0.00000000000000	0.00000000000000	0.00000000000000	0.00000000000000	0.00000000000000	17.64064400000000	0.00000000000000	0.00000000000000	0.00000000000000	0.00000000000000	
17.78659400000000	50.27405500000000	784.02303900000004	57.09819900000000	0.28474700000000	0.00000000000000	0.12946200000000	0.00000000000000	0.00000000000000	0.00000000000000	0.00000000000000	0.00000000000000	0.00000000000000	0.00000000000000	17.73070700000000	0.00000000000000	0.00000000000000	0.00000000000000	0.00000000000000	
17.78825900000000	49.91465200000000	784.95796199999995	57.22567900000000	0.28416900000000	0.00000000000000	0.12950600000000	0.00000000000000	0.00000000000000	0.00000000000000	0.00000000000000	0.00000000000000	0.00000000000000	0.00000000000000	17.81616800000000	0.00000000000000	0.00000000000000	0.00000000000000	0.00000000000000	
17.78992800000000	49.55363200000000	785.78110600000002	57.34280200000000	0.28357700000000	0.00000000000000	0.12955100000000	0.00000000000000	0.00000000000000	0.00000000000000	0.00000000000000	0.00000000000000	0.00000000000000	0.00000000000000	17.89657300000000	0.00000000000000	0.00000000000000	0.00000000000000	0.00000000000000	
17.79159300000000	49.19073800000000	786.49298899999997	57.44884200000000	0.28296700000000	0.00000000000000	0.12959500000000	0.00000000000000	0.00000000000000	0.00000000000000	0.00000000000000	0.00000000000000	0.00000000000000	0.00000000000000	17.97149700000000	0.00000000000000	0.00000000000000	0.00000000000000	0.00000000000000	
17.79326300000000	48.82572800000000	787.09429100000000	57.54311700000000	0.28234000000000	0.00000000000000	0.12964100000000	0.00000000000000	0.00000000000000	0.00000000000000	0.00000000000000	0.00000000000000	0.00000000000000	0.00000000000000	18.04054600000000	0.00000000000000	0.00000000000000	0.00000000000000	0.00000000000000	
